<svg width="12.753052" height="9.991455" viewBox="0 0 12.7531 9.99146" fill="none" xmlns="http://www.w3.org/2000/svg" xmlns:xlink="http://www.w3.org/1999/xlink">
	<desc>
			Created with Pixso.
	</desc>
	<defs/>
	<path id="Arrow 3" d="M10.9393 4.99573L7.22705 1.28345C6.93005 0.98645 6.93005 0.519775 7.22705 0.222778C7.52399 -0.0742188 7.99072 -0.0742188 8.28772 0.222778L12.5303 4.46545C12.8273 4.76233 12.8273 5.22913 12.5303 5.526L8.28772 9.76868C7.99072 10.0657 7.52399 10.0657 7.22705 9.76868C6.93005 9.47168 6.93005 9.005 7.22705 8.70801L10.9393 4.99573Z" fill="#FFFFFF" fill-opacity="1.000000" fill-rule="nonzero"/>
	<path id="Arrow 3" d="M0 4.24573L12 4.24573L12 5.74573L0 5.74573L0 4.24573ZM10.9393 4.99573L7.22705 1.28345C6.93005 0.98645 6.93005 0.519775 7.22705 0.222778C7.52399 -0.0742188 7.99072 -0.0742188 8.28772 0.222778L12.5303 4.46545C12.8273 4.76233 12.8273 5.22913 12.5303 5.526L8.28772 9.76868C7.99072 10.0657 7.52399 10.0657 7.22705 9.76868C6.93005 9.47168 6.93005 9.005 7.22705 8.70801L10.9393 4.99573Z" fill="#FFFFFF" fill-opacity="1.000000" fill-rule="evenodd"/>
</svg>
