<svg width="39.999920" height="34.124756" viewBox="0 0 39.9999 34.1248" fill="none" xmlns="http://www.w3.org/2000/svg" xmlns:xlink="http://www.w3.org/1999/xlink">
	<desc>
			Created with Pixso.
	</desc>
	<defs/>
	<path id="Vector" d="M22.9375 0L7.17102 0C6.45531 0 5.87508 0.5802 5.87508 1.2959C5.87508 2.0116 6.45531 2.59192 7.17102 2.59192L13.9074 2.59192C12.4888 3.48059 11.2075 4.57178 10.1043 5.83093L1.29594 5.83093C0.580235 5.83105 0 6.41138 0 7.12708C0 7.84277 0.580235 8.42297 1.29594 8.42297L8.22953 8.42297C6.73438 10.9586 5.875 13.9119 5.875 17.0624C5.875 20.7284 7.03742 24.1279 9.01258 26.9122L5.33555 26.9122C4.61984 26.9122 4.03961 27.4924 4.03961 28.2081C4.03961 28.9238 4.61984 29.504 5.33555 29.504L11.2745 29.504C12.0845 30.2639 12.9662 30.9434 13.9074 31.5328L1.42961 31.5328C0.713906 31.5328 0.133672 32.1132 0.133672 32.8289C0.133672 33.5446 0.713906 34.1248 1.42961 34.1248L22.9375 34.1248C32.3459 34.1248 39.9999 26.4706 39.9999 17.0624C39.9999 7.65417 32.3458 0 22.9375 0ZM22.9375 31.5331C14.9584 31.5331 8.46703 25.0416 8.46703 17.0625C8.46703 9.08337 14.9584 2.59192 22.9375 2.59192C30.9166 2.59192 37.408 9.08337 37.408 17.0624C37.408 25.0415 30.9166 31.5331 22.9375 31.5331Z" fill="#D10014" fill-opacity="1.000000" fill-rule="nonzero"/>
	<path id="Vector" d="M22.9375 6.47717C17.1007 6.47717 12.3521 11.2257 12.3521 17.0626C12.3521 20.5432 14.0411 23.6367 16.6424 25.5673C16.6662 25.5874 16.6899 25.6077 16.7156 25.6262C16.7445 25.6472 16.7741 25.6669 16.804 25.6852C18.5356 26.9204 20.6531 27.6478 22.9375 27.6478C25.2219 27.6478 27.3394 26.9204 29.071 25.6852C29.101 25.6669 29.1306 25.6472 29.1595 25.6262C29.1851 25.6075 29.2088 25.5873 29.2327 25.5673C31.8338 23.6367 33.5229 20.5433 33.5229 17.0626C33.5229 11.2258 28.7743 6.47717 22.9375 6.47717ZM24.2335 9.1748C26.7625 9.58887 28.896 11.1936 30.0374 13.3931L26.6814 14.4835C26.0985 13.6398 25.2383 13.0024 24.2335 12.7031L24.2335 9.1748L24.2335 9.1748ZM24.8942 17.0625C24.8942 18.1414 24.0164 19.0192 22.9375 19.0192C21.8586 19.0192 20.9809 18.1415 20.9809 17.0625C20.9809 15.9835 21.8586 15.1058 22.9375 15.1058C24.0164 15.1058 24.8942 15.9835 24.8942 17.0625ZM21.6415 9.1748L21.6415 12.7031C20.6366 13.0024 19.7765 13.6398 19.1935 14.4835L15.8377 13.3931C16.9791 11.1936 19.1126 9.58887 21.6415 9.1748ZM17.2553 22.6787C15.8273 21.234 14.9441 19.2495 14.9441 17.0625C14.9441 16.653 14.9752 16.2505 15.0349 15.8574L18.3918 16.9482C18.3909 16.9863 18.3888 17.0242 18.3888 17.0625C18.3888 18.1012 18.7396 19.0592 19.3279 19.8258L17.2553 22.6787ZM22.9375 25.0559C21.6484 25.0559 20.4298 24.7489 19.3504 24.2045L21.4235 21.3512C21.8974 21.5189 22.4068 21.6112 22.9375 21.6112C23.4682 21.6112 23.9776 21.5189 24.4515 21.3512L26.5246 24.2045C25.4453 24.7488 24.2267 25.0559 22.9375 25.0559ZM28.6197 22.6787L26.5471 19.8259C27.1353 19.0593 27.4861 18.1013 27.4861 17.0626C27.4861 17.0242 27.4842 16.9865 27.4831 16.9482L30.8401 15.8575C30.9006 16.2563 30.931 16.6592 30.9309 17.0626C30.931 19.2495 30.0478 21.2339 28.6197 22.6787Z" fill="#D10014" fill-opacity="1.000000" fill-rule="nonzero"/>
</svg>
